<svg width="94" height="105" viewBox="0 0 94 105" fill="none" xmlns="http://www.w3.org/2000/svg">
<rect x="0.948242" y="6.03516" width="93.0514" height="98.6416" fill="#987656"/>
<path d="M0.841797 0.181641H93.9999V93.3397H0.841797V0.181641Z" fill="#75DF93"/>
<path d="M86.1143 12.7516L85.2669 11.8211C83.1589 9.50668 79.3569 10.1891 78.1855 13.0922V13.0922C77.9571 13.658 77.8088 14.2529 77.7447 14.8597L77.0985 20.9787H78.6606V15.1793C78.6606 14.5419 78.7676 13.9089 78.9771 13.3068V13.3068C79.8202 10.8843 82.8181 10.0419 84.7996 11.6708L86.1143 12.7516Z" fill="#438356"/>
<path d="M66.9902 11.3192V11.3192C69.4957 10.2101 72.4353 11.1232 73.8713 13.4567L78.5004 20.9785H75.9513L73.1815 14.8763C72.0957 12.4841 69.6037 11.0524 66.9902 11.3192V11.3192Z" fill="#4BD371"/>
<path d="M28.3721 81.6543L28.1487 81.5171C26.8287 80.7063 25.1412 80.8143 23.9354 81.7868V81.7868C22.8444 82.6667 22.119 83.9203 21.8997 85.3046L21.074 90.5177H22.636L22.9101 85.9288C23.0038 84.3599 23.8579 82.9356 25.1977 82.1138V82.1138C25.6876 81.8133 26.251 81.6543 26.8257 81.6543H28.3721Z" fill="#438356"/>
<path d="M11.8574 84.5416V84.5416C13.0915 81.2403 17.6646 80.989 19.253 84.1352L22.4754 90.5178H19.9264L17.8049 84.7543C16.8109 82.0538 13.0418 81.919 11.8574 84.5416V84.5416Z" fill="#4BD371"/>
<path d="M89.8447 70.3027V70.3027C86.9054 71.1144 84.5555 73.3236 83.564 76.2072L82.5466 79.1662H84.1087L84.2274 78.4723C84.8116 75.0572 86.8651 72.0707 89.8447 70.3027V70.3027Z" fill="#438356"/>
<path d="M70.6777 76.3532V76.3532C73.9213 74.144 78.2387 74.3632 81.2419 76.8894L83.9483 79.1661H81.3993L80.4259 78.2256C77.8356 75.7229 74.0108 74.9883 70.6777 76.3532V76.3532Z" fill="#4BD371"/>
</svg>
